<svg xmlns="http://www.w3.org/2000/svg" viewBox="0 0 254 426" fill="none" role="img" aria-label="EVEASY">
  <title>EVEASY</title>
  <g transform="translate(13.54,56.60) scale(0.2376)" fill="#131a2b">
    <path d="M14.55 0L14.55-143.16L133.11-143.16L133.11-112.60L58.89-112.60L58.89-89.84L127.73-89.84L127.73-60.64L58.89-60.64L58.89-32.42L135.25-32.42L135.25 0L14.55 0M207.02 0L152.92-143.16L199.21-143.16L231.44-40.14L263.18-143.16L308.10-143.16L254.97 0L207.02 0M330.55 0L330.55-143.16L449.11-143.16L449.11-112.60L374.89-112.60L374.89-89.84L443.73-89.84L443.73-60.64L374.89-60.64L374.89-32.42L451.25-32.42L451.25 0L330.55 0M578.20 0L571.17-23.63L520.78-23.63L513.84 0L468.63 0L522.44-143.16L570.68-143.16L624.49 0L578.20 0M530.35-54.59L561.89-54.59L546.07-106.05L530.35-54.59M638.93-47.36L681.02-50Q682.39-39.75 686.59-34.37Q693.43-25.68 706.12-25.68Q715.59-25.68 720.72-30.13Q725.85-34.57 725.85-40.43Q725.85-46 720.96-50.39Q716.08-54.79 698.31-58.69Q669.21-65.23 656.80-76.07Q644.30-86.91 644.30-103.71Q644.30-114.75 650.70-124.56Q657.10-134.37 669.94-139.99Q682.78-145.61 705.14-145.61Q732.59-145.61 746.99-135.40Q761.39-125.20 764.13-102.93L722.43-100.49Q720.77-110.16 715.45-114.55Q710.13-118.95 700.75-118.95Q693.04-118.95 689.13-115.67Q685.22-112.40 685.22-107.71Q685.22-104.30 688.45-101.56Q691.57-98.73 703.29-96.29Q732.29-90.04 744.84-83.64Q757.39-77.25 763.10-67.77Q768.82-58.30 768.82-46.58Q768.82-32.81 761.20-21.19Q753.58-9.57 739.91-3.56Q726.24 2.44 705.44 2.44Q668.91 2.44 654.85-11.62Q640.79-25.68 638.93-47.36M840.39-59.96L784.63-143.16L833.75-143.16L862.66-94.82L891.56-143.16L940.39-143.16L884.73-59.96L884.73 0L840.39 0" />
  </g>
  <g transform="translate(0,69.18)" stroke="#131a2b" stroke-width="40" stroke-linecap="butt" stroke-linejoin="miter" fill="none">
    <path d="M42 205 L118 48" />
    <path d="M164 88 L88 245 L132 322 L212 118" />
  </g>
</svg>
